<?xml version="1.0" encoding="utf-8"?>
<!-- Generator: Adobe Illustrator 26.0.1, SVG Export Plug-In . SVG Version: 6.00 Build 0)  -->
<svg version="1.1" id="Layer_1" xmlns="http://www.w3.org/2000/svg" xmlns:xlink="http://www.w3.org/1999/xlink" x="0px" y="0px"
	 viewBox="0 0 390 267" style="enable-background:new 0 0 390 267;" xml:space="preserve">
<style type="text/css">
	.st0{fill:#041C4E;}
</style>
<g>
	<g>
		<path class="st0" d="M54,208c-0.7-0.9-1.7-1.7-2.8-2.4c-1.1-0.6-2.4-0.9-4-0.9c-1.5,0-2.8,0.3-3.9,0.9c-1.1,0.6-1.7,1.6-1.7,2.8
			c0,1,0.3,1.8,0.9,2.4c0.6,0.6,1.4,1.1,2.2,1.5c0.9,0.4,1.8,0.7,2.8,0.8c1,0.2,1.8,0.4,2.5,0.5c1.4,0.3,2.6,0.7,3.8,1.2
			s2.2,1.1,3.1,1.8c0.9,0.7,1.5,1.7,2,2.7c0.5,1.1,0.7,2.4,0.7,3.9c0,1.9-0.4,3.5-1.2,4.8s-1.8,2.4-3.1,3.3
			c-1.3,0.8-2.7,1.5-4.3,1.8c-1.6,0.4-3.2,0.6-4.9,0.6c-2.8,0-5.2-0.4-7.3-1.3c-2.1-0.8-3.9-2.4-5.6-4.6l4.8-3.9
			c1,1,2.2,1.9,3.4,2.7s2.8,1.2,4.6,1.2c0.8,0,1.6-0.1,2.4-0.2c0.8-0.2,1.5-0.4,2.2-0.8c0.6-0.4,1.1-0.8,1.5-1.3s0.6-1.2,0.6-1.9
			c0-0.9-0.3-1.7-0.9-2.3c-0.6-0.6-1.3-1.1-2.1-1.4c-0.8-0.4-1.7-0.6-2.6-0.8c-0.9-0.2-1.7-0.4-2.4-0.5c-1.4-0.3-2.6-0.7-3.9-1.1
			c-1.2-0.4-2.3-1-3.2-1.7s-1.7-1.6-2.2-2.7c-0.6-1.1-0.8-2.4-0.8-4c0-1.7,0.4-3.2,1.1-4.5c0.7-1.3,1.7-2.4,2.9-3.2s2.6-1.5,4.1-1.9
			s3.1-0.6,4.6-0.6c2.2,0,4.4,0.4,6.5,1.3c2.1,0.8,3.7,2.2,4.9,4.2L54,208z"/>
		<path class="st0" d="M62.8,199.7h5.9v5.2h0.1c0.1-0.5,0.5-1.1,1.1-1.8s1.3-1.4,2.2-2c0.9-0.6,2-1.2,3.2-1.6
			c1.2-0.4,2.6-0.7,4.1-0.7c2.5,0,4.6,0.5,6.2,1.5c1.7,1,3.1,2.6,4.1,4.6c1.1-2.1,2.6-3.6,4.6-4.6s4-1.5,6-1.5
			c2.6,0,4.7,0.4,6.3,1.3c1.6,0.8,2.9,2,3.9,3.3c0.9,1.4,1.6,2.9,1.9,4.7c0.4,1.8,0.5,3.6,0.5,5.4v19.4h-6.3v-18.5
			c0-1.3-0.1-2.5-0.2-3.7c-0.2-1.2-0.5-2.2-1-3.1c-0.5-0.9-1.2-1.6-2.2-2.1c-0.9-0.5-2.2-0.8-3.7-0.8c-3,0-5.2,0.9-6.5,2.8
			c-1.3,1.9-2,4.3-2,7.2v18.2h-6.3v-17.4c0-1.6-0.1-3-0.2-4.4c-0.2-1.3-0.5-2.4-1-3.4s-1.2-1.7-2.1-2.2s-2.1-0.8-3.7-0.8
			c-1.1,0-2.2,0.2-3.3,0.7c-1.1,0.4-2,1.1-2.8,2s-1.4,2-1.9,3.4s-0.7,3-0.7,4.9V233h-6.3L62.8,199.7z"/>
		<path class="st0" d="M117.8,203.8c1.8-1.6,3.8-2.9,6.2-3.7c2.3-0.8,4.7-1.2,7-1.2c2.4,0,4.5,0.3,6.3,0.9c1.8,0.6,3.2,1.4,4.3,2.5
			c1.1,1,2,2.2,2.5,3.5s0.8,2.7,0.8,4.2v17c0,1.2,0,2.2,0.1,3.2c0,1,0.1,1.9,0.2,2.8h-5.6c-0.1-1.7-0.2-3.4-0.2-5.1h-0.1
			c-1.4,2.2-3.1,3.7-5,4.6c-1.9,0.9-4.1,1.3-6.7,1.3c-1.5,0-3-0.2-4.4-0.6c-1.4-0.4-2.6-1.1-3.7-1.9c-1.1-0.8-1.9-1.9-2.5-3.1
			c-0.6-1.2-0.9-2.7-0.9-4.3c0-2.2,0.5-4,1.4-5.4c1-1.5,2.3-2.6,3.9-3.5c1.7-0.9,3.6-1.6,5.8-2c2.2-0.4,4.6-0.6,7.1-0.6h4.6V211
			c0-0.8-0.2-1.7-0.5-2.5s-0.8-1.6-1.5-2.3s-1.5-1.2-2.5-1.6c-1-0.4-2.2-0.6-3.5-0.6c-1.2,0-2.3,0.1-3.2,0.4
			c-0.9,0.2-1.7,0.5-2.5,0.9c-0.7,0.4-1.4,0.8-2,1.2c-0.6,0.5-1.2,0.9-1.8,1.3L117.8,203.8z M135.6,217c-1.5,0-3,0.1-4.6,0.2
			c-1.6,0.2-3,0.5-4.3,0.9c-1.3,0.5-2.3,1.1-3.2,2c-0.8,0.8-1.2,1.9-1.2,3.2c0,1.9,0.6,3.3,1.9,4.1s3,1.3,5.2,1.3
			c1.7,0,3.2-0.3,4.4-0.9c1.2-0.6,2.2-1.3,2.9-2.3c0.7-0.9,1.3-2,1.6-3.1s0.5-2.3,0.5-3.4v-2H135.6z"/>
		<path class="st0" d="M220,208c-0.7-0.9-1.7-1.7-2.8-2.4c-1.1-0.6-2.4-0.9-4-0.9c-1.5,0-2.8,0.3-3.9,0.9s-1.7,1.6-1.7,2.8
			c0,1,0.3,1.8,0.9,2.4c0.6,0.6,1.4,1.1,2.2,1.5c0.9,0.4,1.8,0.7,2.8,0.8c1,0.2,1.8,0.4,2.5,0.5c1.4,0.3,2.6,0.7,3.8,1.2
			s2.2,1.1,3.1,1.8c0.9,0.7,1.5,1.7,2,2.7c0.5,1.1,0.7,2.4,0.7,3.9c0,1.9-0.4,3.5-1.2,4.8s-1.8,2.4-3.1,3.3
			c-1.3,0.8-2.7,1.5-4.3,1.8c-1.6,0.4-3.2,0.6-4.9,0.6c-2.8,0-5.2-0.4-7.3-1.3c-2.1-0.8-3.9-2.4-5.6-4.6l4.8-3.9
			c1,1,2.2,1.9,3.4,2.7c1.3,0.8,2.8,1.2,4.6,1.2c0.8,0,1.6-0.1,2.4-0.2c0.8-0.2,1.5-0.4,2.2-0.8c0.6-0.4,1.1-0.8,1.5-1.3
			s0.6-1.2,0.6-1.9c0-0.9-0.3-1.7-0.9-2.3c-0.6-0.6-1.3-1.1-2.1-1.4c-0.8-0.4-1.7-0.6-2.6-0.8c-0.9-0.2-1.7-0.4-2.4-0.5
			c-1.4-0.3-2.6-0.7-3.9-1.1c-1.2-0.4-2.3-1-3.2-1.7s-1.7-1.6-2.2-2.7c-0.6-1.1-0.8-2.4-0.8-4c0-1.7,0.4-3.2,1.1-4.5
			c0.7-1.3,1.7-2.4,2.9-3.2s2.6-1.5,4.1-1.9s3.1-0.6,4.6-0.6c2.2,0,4.4,0.4,6.5,1.3c2.1,0.8,3.7,2.2,4.9,4.2L220,208z"/>
		<path class="st0" d="M229,179.9h6.3v24.9h0.1c0.8-1.8,2.2-3.2,4.1-4.3c2-1.1,4.2-1.7,6.8-1.7c1.6,0,3.1,0.2,4.6,0.7
			s2.8,1.3,3.9,2.3c1.1,1,2,2.4,2.6,4c0.7,1.6,1,3.5,1,5.7v21.4h-6.3v-19.7c0-1.5-0.2-2.9-0.6-4c-0.4-1.1-1-2-1.7-2.7
			s-1.5-1.2-2.4-1.5s-1.9-0.5-2.8-0.5c-1.3,0-2.5,0.2-3.7,0.6c-1.1,0.4-2.1,1.1-2.9,2c-0.8,0.9-1.5,2.1-2,3.5s-0.7,3.1-0.7,5v17.1
			H229V179.9z"/>
		<path class="st0" d="M268.5,218.6c0,1.5,0.3,2.8,0.9,4s1.5,2.2,2.5,3.1c1,0.8,2.2,1.5,3.6,2s2.8,0.7,4.2,0.7c2,0,3.7-0.5,5.1-1.4
			c1.5-0.9,2.8-2.1,4-3.6l4.8,3.7c-3.5,4.5-8.4,6.8-14.7,6.8c-2.6,0-5-0.4-7.1-1.3c-2.1-0.9-3.9-2.1-5.4-3.7
			c-1.5-1.6-2.6-3.4-3.4-5.5s-1.2-4.4-1.2-6.9s0.4-4.8,1.3-6.9c0.9-2.1,2.1-4,3.6-5.5s3.3-2.8,5.4-3.7s4.4-1.3,6.9-1.3
			c3,0,5.4,0.5,7.5,1.5c2,1,3.7,2.4,5,4c1.3,1.7,2.3,3.5,2.8,5.6c0.6,2.1,0.9,4.2,0.9,6.4v2.2h-26.7V218.6z M288.4,213.6
			c0-1.4-0.3-2.7-0.7-3.9c-0.4-1.2-1-2.2-1.8-3.1c-0.8-0.9-1.8-1.5-3-2s-2.6-0.7-4.2-0.7c-1.5,0-3,0.3-4.2,0.9
			c-1.3,0.6-2.4,1.3-3.3,2.3c-0.9,0.9-1.6,2-2.1,3.1s-0.7,2.3-0.7,3.4H288.4z"/>
		<path class="st0" d="M305.4,218.6c0,1.5,0.3,2.8,0.9,4s1.5,2.2,2.5,3.1c1,0.8,2.2,1.5,3.6,2s2.8,0.7,4.2,0.7c2,0,3.7-0.5,5.1-1.4
			c1.5-0.9,2.8-2.1,4-3.6l4.8,3.7c-3.5,4.5-8.4,6.8-14.7,6.8c-2.6,0-5-0.4-7.1-1.3c-2.1-0.9-3.9-2.1-5.4-3.7
			c-1.5-1.6-2.6-3.4-3.4-5.5s-1.2-4.4-1.2-6.9s0.4-4.8,1.3-6.9c0.9-2.1,2.1-4,3.6-5.5s3.3-2.8,5.4-3.7s4.4-1.3,6.9-1.3
			c2.9,0,5.4,0.5,7.5,1.5c2,1,3.7,2.4,5,4c1.3,1.7,2.3,3.5,2.8,5.6c0.6,2.1,0.9,4.2,0.9,6.4v2.2L305.4,218.6z M325.4,213.6
			c0-1.4-0.3-2.7-0.7-3.9c-0.4-1.2-1-2.2-1.8-3.1c-0.8-0.9-1.8-1.5-3-2s-2.6-0.7-4.2-0.7c-1.5,0-3,0.3-4.2,0.9
			c-1.3,0.6-2.4,1.3-3.3,2.3c-0.9,0.9-1.6,2-2.1,3.1s-0.7,2.3-0.7,3.4H325.4z"/>
		<g>
			<path class="st0" d="M169.5,199.8c0,0-3.7-0.5-5.8-0.4c-2.4,0.2-3.2,0.5-4.5,1.2c-0.9,0.5-1.7,1.1-2.4,1.9
				c-0.7,0.7-1.3,1.5-1.7,2.4H155v-5.1h-6.3v33.3h6.3c0,0-0.2-13.7,0-17c0.2-3.4,0.8-6.8,2.5-8.5c1.8-1.7,2.6-2,4.8-2.3
				c2-0.3,4.7,0,4.7,0L169.5,199.8z"/>
		</g>
		<g>
			<path class="st0" d="M192.8,227.7c-0.8,0.1-1.6,0.2-2.3,0.2c-1.2,0-2.1-0.2-2.8-0.7c-0.6-0.4-1.1-1-1.4-1.8
				c-0.3-0.7-0.5-1.5-0.5-2.5c0-0.9-0.1-1.8-0.1-2.8V205h9.1v-5.5h-9.1v-9.3h-6.3v9.3H173l-2.4,5.5h8.8v17.3c0,1.4,0.1,2.7,0.2,4
				c0.1,1.3,0.5,2.5,1.1,3.6s1.6,2,2.9,2.6c1.3,0.7,3.2,1,5.7,1c0.7,0,1.6-0.1,2.8-0.2c1.2-0.2,2.2-0.5,2.9-0.9v-5.8
				C194.3,227.3,193.6,227.6,192.8,227.7z"/>
		</g>
		<g>
			<path class="st0" d="M354.3,227.7c-0.8,0.1-1.6,0.2-2.3,0.2c-1.2,0-2.1-0.2-2.8-0.7c-0.6-0.4-1.1-1-1.4-1.8
				c-0.3-0.7-0.5-1.5-0.5-2.5c0-0.9-0.1-1.8-0.1-2.8V205h9.1v-5.5h-9.1v-9.3h-6.3v9.3h-6.4l-2.4,5.5h8.8v17.3c0,1.4,0.1,2.7,0.2,4
				s0.5,2.5,1.1,3.6s1.6,2,2.9,2.6c1.3,0.7,3.2,1,5.7,1c0.7,0,1.6-0.1,2.8-0.2c1.2-0.2,2.2-0.5,2.9-0.9v-5.8
				C355.8,227.3,355.1,227.6,354.3,227.7z"/>
		</g>
	</g>
	<g>
		<path class="st0" d="M161.1,87.4c0,0,5.7-8.1,13.3-8.2c11.7-0.2,21.3,20.9,22.7,23.9c12.9-29,34.4-53.5,51.8-69.9H142
			c0,10.1,0.1,111.5,0.1,119.8c0,6.6-0.9,11.3-1.4,13.4c4.7-0.7,22.7-3.8,41-10.4c32.5-11.7,45.2-24.1,45.3-24.2l0.8-0.8l0.5,1.1
			c0,0.1,4.1,9,8.1,13.8c4.5,5.3,7,5.9,8.3,5.5c1.8-0.6,3-3.5,3.5-8.5c0.5-4.8,0.9-15.7,0.9-29c0-23.9,0-55.5,0-71.3
			c-31.5,38.7-54.7,96.6-54.7,96.6S179.3,87.1,161.1,87.4z"/>
	</g>
</g>
</svg>
